<svg id="Layer_1" data-name="Layer 1" xmlns="http://www.w3.org/2000/svg" viewBox="0 0 483.15 89"><defs><style>.cls-1{fill:#fbfcfd;}</style></defs><path class="cls-1" d="M255.65,140.51c0,1.41-.61,2.2-1.81,2.36s-4.19.24-9,.24a66.57,66.57,0,0,1-9.18-.36c-1.21-.24-1.81-1.23-1.81-3s.06-4.62.18-8.31.18-6.45.18-8.31q0-10.58-.24-15-.36-7.2-6.83-7.19a8.74,8.74,0,0,0-5.65,2.38,8.08,8.08,0,0,0-3.11,5.29q-.24,2.53-.24,14.86,0,2.85.18,8.61t.18,8.68c0,1.32-.59,2-1.75,2H198.49c-1.13,0-1.69-.83-1.69-2.48q0-2.84.18-8.52t.18-8.58q0-2.23-.12-6.76c-.08-3-.12-5.3-.12-6.83q0-8.64-6.59-8.64a10.53,10.53,0,0,0-5.74,2c-2.26,1.49-3.38,3.06-3.38,4.71q0,5.51.06,16.44t.06,16.37a3,3,0,0,1-.36,1.88,3.47,3.47,0,0,1-1.88.48q-2.72.24-8.58.24-3.81,0-8.64-.36a3.17,3.17,0,0,1-1.72-.42,3.49,3.49,0,0,1-.27-1.82q0-4.83.06-14.47t.06-14.47a192.59,192.59,0,0,0-1.45-22.29,7.46,7.46,0,0,1-.12-1.09,1.37,1.37,0,0,1,.84-1.39,20.29,20.29,0,0,1,5-.91c3-.28,4.81-.46,5.38-.54.4-.08,2-.51,4.77-1.27a18.06,18.06,0,0,1,4.77-.85c.77,0,1.17,1.4,1.21,4.2s.2,4.2.48,4.2a5.89,5.89,0,0,0,1.39-.84A57.42,57.42,0,0,1,190.88,85,23.11,23.11,0,0,1,201,82.75a19.73,19.73,0,0,1,9.91,2.48A12.88,12.88,0,0,1,217.22,93,25.28,25.28,0,0,1,226,85.71a23.45,23.45,0,0,1,10.94-3c5.32,0,9.64,1.23,13,3.68q5.67,4.17,5.68,11.91c0,2.13-.06,5.35-.18,9.64s-.18,7.5-.18,9.63q0,3.81.18,11.45T255.65,140.51Z" transform="translate(-158.43 -55.5)"/><path class="cls-1" d="M322.48,109.94q0,6.11-3.93,7-.66.12-12.51,1.33-7.12.78-21.27,1.87a8.58,8.58,0,0,0,5.14,6,18,18,0,0,0,8,1.69,22.74,22.74,0,0,0,10.82-2.9l4.59-2.9c.85.41,2.27,2.46,4.26,6.17s3,6.06,3,7.07c0,.28-.3.74-.9,1.39q-7.38,7.91-22.9,7.91-14.39,0-23.21-8.4-9.06-8.52-9.06-22.78,0-13.89,8.1-22.78,8.34-9.18,22.11-9.18a26.24,26.24,0,0,1,19.7,8.46A28.1,28.1,0,0,1,322.48,109.94Zm-21.15-3.69a9.35,9.35,0,0,0-2.66-6.58,8.37,8.37,0,0,0-6.34-2.84A7.64,7.64,0,0,0,286,100a11,11,0,0,0-2.29,7c0,1.09.56,1.63,1.69,1.63a105.38,105.38,0,0,0,13.89-1.39C300.66,107,301.33,106.7,301.33,106.25Z" transform="translate(-158.43 -55.5)"/><path class="cls-1" d="M389.18,141a1.73,1.73,0,0,1-1.69,1.87q-1.69.24-8.82.24a69.2,69.2,0,0,1-9.42-.36,2.2,2.2,0,0,1-1.82-2.48q0-2.84.18-8.58t.18-8.64q0-2.23-.12-6.67c-.08-3-.12-5.19-.12-6.68q0-8.28-7.19-8.28a10.59,10.59,0,0,0-5.5,2q-3.37,2.31-3.38,4.54v32.62a2,2,0,0,1-1.87,2.24q-2.12.24-8.64.24a70.89,70.89,0,0,1-9.19-.36,1.9,1.9,0,0,1-1.87-2q0-4.72.06-14.2T330,112.3q0-15-2.36-23.63a4.3,4.3,0,0,1-.12-.91,1.33,1.33,0,0,1,.91-1.33q3.81-.42,10.15-1.32,9.61-1.87,10.82-1.88.66,0,1,4.08c.24,2.72.59,4.08,1,4.08q-.66,0,6.5-4.2T370.51,83a21.63,21.63,0,0,1,12.81,3.63,13.51,13.51,0,0,1,5.74,11.6v19.27q0,3.93.06,11.76T389.18,141Z" transform="translate(-158.43 -55.5)"/><path class="cls-1" d="M463.32,57q0-1.34-.48,4-.66,6.7-1,17.16-.48,11.84-.48,27,0,24.95,1.39,35.52c.08.77.12,1.25.12,1.45,0,.45-.3.71-.91.79q-2.18.3-16,.3c-2.17,0-3.42-.42-3.74-1.27-.09-1.53-.17-3.06-.25-4.59a1.88,1.88,0,0,0-.48-1,4.53,4.53,0,0,0-.91.73,22.33,22.33,0,0,1-16.31,6.4q-12.75,0-20.42-8.94Q396.49,126,396.5,113q0-13.17,7.19-21.69,7.6-9.06,20.54-9.06,9.12,0,14.2,5.8c.56.64,1,1,1.21,1s.54-.52.54-1.57q0-4.65-.24-13.9t-.24-13.83c0-1.17.32-1.83,1-2,2.57-.12,6.12-.36,10.63-.72Q463.39,55.5,462,55.5C462.88,55.5,463.32,56,463.32,57Zm-22.78,55.53a11.94,11.94,0,0,0-3.32-8.37,10.52,10.52,0,0,0-8-3.6,9.63,9.63,0,0,0-7.89,3.6,13.23,13.23,0,0,0-2.93,8.61,12.16,12.16,0,0,0,3,8.28,9.75,9.75,0,0,0,7.86,3.62,10.45,10.45,0,0,0,8.09-3.62A12.31,12.31,0,0,0,440.54,112.54Z" transform="translate(-158.43 -55.5)"/><path class="cls-1" d="M533,112.54q0,4.65.55,13.84t.54,13.77c0,1.61-.71,2.48-2.12,2.6q-7.49.54-17.16.54c-.76,0-1.28-1.15-1.54-3.47s-.57-3.49-.93-3.53a5.34,5.34,0,0,0-1.27,1q-6.76,6.83-14.5,6.83A24.3,24.3,0,0,1,477,134.83a31.26,31.26,0,0,1-7.31-20.78q0-14,7.55-22.48,7.86-8.82,21.51-8.82,9.49,0,15,6.65.24.3.42.3c.36,0,.78-1,1.24-2.93s1-2.93,1.66-2.93a52.66,52.66,0,0,1,8.52,1.27,85.7,85.7,0,0,1,8.58,2c.61.24.91.56.91,1a11.11,11.11,0,0,1-.18,1.27A132.68,132.68,0,0,0,533,112.54Zm-19.45.36a11.74,11.74,0,0,0-3.24-8.49,12.27,12.27,0,0,0-16.82,0,12.49,12.49,0,0,0,.18,16.92,11,11,0,0,0,8.21,3.5,11.17,11.17,0,0,0,8.4-3.35A11.74,11.74,0,0,0,513.54,112.9Z" transform="translate(-158.43 -55.5)"/><path class="cls-1" d="M641.57,140.51c0,1.41-.6,2.2-1.81,2.36s-4.19.24-8.94.24a66.66,66.66,0,0,1-9.19-.36c-1.2-.24-1.81-1.23-1.81-3s.06-4.62.18-8.31.18-6.45.18-8.31q0-10.58-.24-15-.36-7.2-6.83-7.19a8.76,8.76,0,0,0-5.65,2.38,8.08,8.08,0,0,0-3.11,5.29q-.24,2.53-.24,14.86,0,2.85.18,8.61t.18,8.68c0,1.32-.58,2-1.75,2H584.41c-1.13,0-1.69-.83-1.69-2.48q0-2.84.18-8.52t.18-8.58q0-2.23-.12-6.76c-.08-3-.12-5.3-.12-6.83q0-8.64-6.58-8.64a10.47,10.47,0,0,0-5.74,2q-3.39,2.24-3.39,4.71,0,5.51.06,16.44t.06,16.37a3,3,0,0,1-.36,1.88,3.42,3.42,0,0,1-1.87.48q-2.73.24-8.58.24-3.81,0-8.64-.36a3.25,3.25,0,0,1-1.73-.42,3.49,3.49,0,0,1-.27-1.82q0-4.83.06-14.47t.06-14.47a192.59,192.59,0,0,0-1.45-22.29,7.46,7.46,0,0,1-.12-1.09,1.36,1.36,0,0,1,.85-1.39,20.18,20.18,0,0,1,5-.91c3-.28,4.82-.46,5.38-.54.4-.08,2-.51,4.77-1.27a18.19,18.19,0,0,1,4.78-.85c.76,0,1.17,1.4,1.21,4.2s.2,4.2.48,4.2a6.31,6.31,0,0,0,1.39-.84A56.93,56.93,0,0,1,576.8,85a23.11,23.11,0,0,1,10.09-2.23,19.68,19.68,0,0,1,9.91,2.48A12.85,12.85,0,0,1,603.14,93,25.41,25.41,0,0,1,612,85.71a23.41,23.41,0,0,1,10.93-3q8,0,13,3.68,5.68,4.17,5.68,11.91c0,2.13-.06,5.35-.18,9.64s-.18,7.5-.18,9.63q0,3.81.18,11.45T641.57,140.51Z" transform="translate(-158.43 -55.5)"/></svg>